<svg width="359" height="112" viewBox="0 0 359 112" fill="none" xmlns="http://www.w3.org/2000/svg">
<path d="M25.6213 79C19.9093 79 18.6773 75.192 18.6773 71.832V7.768C18.6773 4.408 19.9093 0.599995 25.6213 0.599995H42.6453C48.3573 0.599995 49.5893 4.408 49.5893 7.768V12.472C49.5893 15.832 48.3573 19.64 42.6453 19.64H35.8133C33.1253 19.64 32.5653 21.432 32.5653 23V29.608C32.5653 31.176 33.1253 32.968 35.8133 32.968H42.5333C47.1253 32.968 48.3573 34.424 48.3573 40.024C48.3573 45.624 47.1253 46.856 42.5333 46.856H35.8133C33.1253 46.856 32.5653 48.648 32.5653 50.216V71.832C32.5653 75.192 31.3333 79 25.6213 79ZM61.0281 79C53.0761 79 50.7241 74.072 50.7241 68.472V7.768C50.7241 4.408 51.9561 0.599995 57.6681 0.599995C63.3801 0.599995 64.6121 4.408 64.6121 7.768V54.584C64.6121 56.936 65.1721 58.728 67.7481 58.728C70.3241 58.728 70.8841 56.936 70.8841 54.584V7.768C70.8841 4.408 72.1161 0.599995 77.8281 0.599995C83.5401 0.599995 84.7721 4.408 84.7721 7.768V68.472C84.7721 73.96 82.4201 79 74.8041 79H61.0281ZM93.9806 79C88.2686 79 87.0366 75.192 87.0366 71.832V7.768C87.0366 4.408 88.2686 0.599995 93.9806 0.599995C98.4606 0.599995 99.9166 2.952 100.701 5.528L107.869 29.16V7.768C107.869 4.408 109.101 0.599995 114.813 0.599995C120.525 0.599995 121.757 4.408 121.757 7.768V71.832C121.757 75.192 120.525 79 114.813 79C110.333 79 108.877 76.648 108.093 74.072L100.925 50.664V71.832C100.925 75.192 99.6926 79 93.9806 79ZM130.949 79C125.237 79 124.005 75.192 124.005 71.832V7.768C124.005 4.408 125.237 0.599995 130.949 0.599995C135.429 0.599995 136.885 2.952 137.669 5.528L144.837 29.16V7.768C144.837 4.408 146.069 0.599995 151.781 0.599995C157.493 0.599995 158.725 4.408 158.725 7.768V71.832C158.725 75.192 157.493 79 151.781 79C147.301 79 145.845 76.648 145.061 74.072L137.893 50.664V71.832C137.893 75.192 136.661 79 130.949 79ZM179.566 79C173.854 79 172.622 75.192 172.622 71.832V46.856L160.75 10.12C158.846 4.52 162.43 0.599995 167.918 0.599995C171.502 0.599995 173.182 3.17599 173.966 5.752L179.566 23.224L185.166 5.752C185.95 3.17599 187.742 0.599995 191.214 0.599995C196.478 0.599995 200.398 4.184 198.382 10.12L186.51 46.856V71.832C186.51 75.192 185.278 79 179.566 79Z" fill="#EDF6F6"/>
<path d="M201.059 65.9464C201.059 64.9781 201.279 64.0743 201.708 63.2608C202.148 62.4474 202.728 61.7889 203.469 61.2983C204.199 60.8077 205.011 60.5753 205.88 60.5753C206.749 60.5753 207.56 60.8206 208.29 61.2983C208.685 61.5565 209.021 61.8664 209.322 62.215C209.623 61.8664 209.971 61.5565 210.353 61.2983C211.084 60.8077 211.895 60.5753 212.764 60.5753C213.633 60.5753 214.444 60.8206 215.175 61.2983C215.569 61.5565 215.905 61.8664 216.206 62.215C216.241 62.1763 216.276 62.1376 216.31 62.0988C215.997 61.7631 215.719 61.3758 215.488 60.9497C215.047 60.1363 214.839 59.2325 214.839 58.2641C214.839 57.2958 215.059 56.392 215.488 55.5786C215.719 55.1525 215.997 54.7652 216.31 54.4295C215.997 54.0938 215.719 53.7064 215.488 53.2803C215.047 52.4669 214.839 51.5631 214.839 50.5948C214.839 49.6264 215.059 48.7226 215.488 47.9092C215.928 47.0958 216.507 46.4373 217.249 45.9467C217.979 45.456 218.79 45.2236 219.66 45.2236C220.529 45.2236 221.34 45.4689 222.07 45.9467C222.8 46.4373 223.391 47.0829 223.832 47.9092C224.272 48.7226 224.481 49.6264 224.481 50.5948C224.481 51.5631 224.261 52.4669 223.832 53.2803C223.6 53.7193 223.322 54.0938 223.009 54.4295C223.044 54.4682 223.079 54.5069 223.113 54.5457C223.415 54.1971 223.762 53.8872 224.145 53.6289C224.875 53.1383 225.686 52.9059 226.555 52.9059C227.425 52.9059 228.236 53.1512 228.966 53.6289C229.696 54.1196 230.287 54.7652 230.728 55.5915C231.168 56.4049 231.377 57.3087 231.377 58.2771C231.377 59.2454 231.156 60.1492 230.728 60.9626C230.287 61.776 229.708 62.4345 228.966 62.9252C228.236 63.4158 227.425 63.6482 226.555 63.6482C225.686 63.6482 224.875 63.4029 224.145 62.9252C223.762 62.6669 223.415 62.3571 223.113 62.0084C223.079 62.0472 223.044 62.0859 223.009 62.1246C223.322 62.4603 223.6 62.8477 223.832 63.2738C224.272 64.0872 224.481 64.991 224.481 65.9593C224.481 66.9277 224.261 67.8315 223.832 68.6449C223.6 69.0839 223.322 69.4583 223.009 69.794C223.322 70.1297 223.6 70.5171 223.832 70.9431C224.272 71.7565 224.481 72.6603 224.481 73.6287C224.481 74.5971 224.261 75.5008 223.832 76.3143C223.391 77.1277 222.812 77.7862 222.07 78.2768C221.34 78.7674 220.529 78.9998 219.66 78.9998C218.79 78.9998 217.979 78.7545 217.249 78.2768C216.519 77.7862 215.928 77.1406 215.488 76.3143C215.047 75.5008 214.839 74.5971 214.839 73.6287C214.839 72.6603 215.059 71.7565 215.488 70.9431C215.719 70.5171 215.997 70.1297 216.31 69.794C216.276 69.7553 216.241 69.7165 216.206 69.6778C215.905 70.0264 215.557 70.3363 215.175 70.5945C214.444 71.0852 213.633 71.3176 212.764 71.3176C211.895 71.3176 211.084 71.0722 210.353 70.5945C209.971 70.3363 209.623 70.0264 209.322 69.6778C209.287 69.7165 209.252 69.7553 209.218 69.794C209.531 70.1297 209.809 70.5171 210.04 70.9431C210.481 71.7565 210.69 72.6603 210.69 73.6287C210.69 74.5971 210.469 75.5008 210.04 76.3143C209.6 77.1277 209.021 77.7862 208.279 78.2768C207.549 78.7674 206.738 78.9998 205.868 78.9998C204.999 78.9998 204.188 78.7545 203.458 78.2768C202.728 77.7862 202.137 77.1406 201.696 76.3143C201.256 75.5008 201.047 74.5971 201.047 73.6287C201.047 72.6603 201.267 71.7565 201.696 70.9431C201.928 70.5171 202.206 70.1297 202.519 69.794C202.206 69.4583 201.928 69.071 201.696 68.6449C201.256 67.8315 201.047 66.9277 201.047 65.9593L201.059 65.9464Z" fill="#EDF6F6"/>
<path d="M200.054 55.5913C200.494 54.7779 201.074 54.1194 201.815 53.6288C202.546 53.1382 203.357 52.9058 204.226 52.9058C205.095 52.9058 205.907 53.1511 206.637 53.6288C207.367 54.1194 207.958 54.765 208.398 55.5913C208.839 56.4047 209.047 57.3085 209.047 58.2769C209.047 59.2453 208.827 60.1491 208.398 60.9625C207.958 61.7759 207.378 62.4344 206.637 62.925C205.907 63.4156 205.095 63.648 204.226 63.648C203.357 63.648 202.546 63.4027 201.815 62.925C201.085 62.4344 200.494 61.7888 200.054 60.9625C199.613 60.1491 199.405 59.2453 199.405 58.2769C199.405 57.3085 199.625 56.4047 200.054 55.5913Z" fill="#EDF6F6"/>
<path d="M244.835 79C239.123 79 237.891 75.192 237.891 71.832V7.768C237.891 4.408 239.123 0.599995 244.835 0.599995H261.859C267.571 0.599995 268.803 4.408 268.803 7.768V12.472C268.803 15.832 267.571 19.64 261.859 19.64H255.027C252.339 19.64 251.779 21.432 251.779 23V29.608C251.779 31.176 252.339 32.968 255.027 32.968H261.747C266.339 32.968 267.571 34.424 267.571 40.024C267.571 45.624 266.339 46.856 261.747 46.856H255.027C252.339 46.856 251.779 48.648 251.779 50.216V71.832C251.779 75.192 250.547 79 244.835 79ZM280.242 79C272.29 79 269.938 74.072 269.938 68.472V7.768C269.938 4.408 271.17 0.599995 276.882 0.599995C282.594 0.599995 283.826 4.408 283.826 7.768V54.584C283.826 56.936 284.386 58.728 286.962 58.728C289.538 58.728 290.098 56.936 290.098 54.584V7.768C290.098 4.408 291.33 0.599995 297.042 0.599995C302.754 0.599995 303.986 4.408 303.986 7.768V68.472C303.986 73.96 301.634 79 294.018 79H280.242ZM313.194 79C307.482 79 306.25 75.192 306.25 71.832V7.768C306.25 4.408 307.482 0.599995 313.194 0.599995H333.69C339.066 0.599995 340.298 4.52 340.298 7.768V33.976C340.298 36.888 339.29 40.248 335.258 41.032V41.256C339.29 42.04 340.298 45.4 340.298 48.312V71.832C340.298 75.192 339.066 79 333.354 79C327.642 79 326.41 75.192 326.41 71.832V50.104C326.41 47.752 325.85 45.96 323.274 45.96C320.698 45.96 320.138 47.752 320.138 50.104V71.832C320.138 75.192 318.906 79 313.194 79ZM320.138 31.96C320.138 34.312 320.698 36.104 323.274 36.104C325.85 36.104 326.41 34.312 326.41 31.96V25.016C326.41 22.664 325.85 20.872 323.274 20.872C320.698 20.872 320.138 22.664 320.138 25.016V31.96Z" fill="#EDF6F6"/>
<path d="M3 109H356" stroke="#EDF6F6" stroke-width="5" stroke-linecap="round"/>
</svg>
