<svg width="24" height="24" viewBox="0 0 24 24" fill="none" xmlns="http://www.w3.org/2000/svg">
<path d="M11.3736 14.1392C11.3736 14.1392 11.4002 14.1013 11.4154 14.0747C11.4382 14.0367 11.461 14.0026 11.4876 13.9646L11.8673 13.422L12.4559 13.9836C12.5205 14.0443 12.5699 14.0899 12.6154 14.1392L22.0637 23.5767C22.1207 23.6336 22.17 23.6868 22.227 23.7361C22.489 23.9714 22.8688 24.0587 23.2296 23.96C23.4308 23.9069 23.7878 23.7437 23.9397 23.2769C24.0802 22.8406 23.9777 22.4838 23.6055 22.112L14.1155 12.6327C14.1155 12.6327 14.0775 12.6061 14.0509 12.591C14.0091 12.5644 13.9636 12.534 13.918 12.5037L13.318 12.0787L14.0053 11.4981C14.0661 11.4487 14.0965 11.4222 14.1269 11.3956L23.5789 1.9505C23.6359 1.89358 23.6853 1.84424 23.727 1.79491C23.9777 1.5141 24.0574 1.14601 23.9549 0.789306C23.8524 0.44019 23.5751 0.166969 23.2182 0.0645106L23.0169 0.0075893H22.8118C22.4435 0.0948684 22.1549 0.364295 21.7903 0.72859C19.7092 2.8157 17.6244 4.89901 15.5433 6.97853L12.6002 9.92325C12.5471 9.98017 12.4521 10.0902 12.2699 10.2154L11.761 10.5722L11.4496 10.0371C11.4268 9.99914 11.4078 9.9574 11.385 9.91945L11.3622 9.87392L7.61407 6.12851C5.81783 4.3336 4.02159 2.53868 2.22916 0.739975C1.89877 0.409832 1.58738 0.0948685 1.19243 0H1.01395C0.964581 0.0189737 0.911414 0.0379473 0.858248 0.056921C0.698751 0.113842 0.546848 0.166969 0.429124 0.235274C0.258235 0.333937 0.136715 0.508495 0.00380125 0.857612V1.30919C0.110132 1.62035 0.34937 1.8746 0.672161 2.19716C2.76461 4.28047 4.85326 6.36758 6.94191 8.45469L9.87361 11.3842C9.90399 11.4146 9.93817 11.4411 9.97235 11.4677L10.5306 11.9421L10.0369 12.4619C9.98753 12.5151 9.94576 12.5606 9.90019 12.6023L8.09636 14.4048C5.61657 16.8828 3.13677 19.3646 0.649376 21.8387C0.345573 22.1385 0.106331 22.3966 0 22.7115V23.1441C0.0227852 23.1897 0.0417743 23.239 0.0607621 23.2883C0.163296 23.5729 0.33798 23.7627 0.603808 23.8879C0.945586 24.0511 1.50003 24.0131 1.88738 23.6185C4.04818 21.4441 6.21657 19.2773 8.38877 17.1105L11.3736 14.1278V14.1392Z" fill="#EDF6F6"/>
</svg>
