<svg width="28" height="28" viewBox="0 0 28 28" fill="none" xmlns="http://www.w3.org/2000/svg">
<path d="M28 13.0618L27.9492 12.6866C27.914 12.4208 27.8788 12.155 27.8397 11.8892C27.3119 8.5553 25.7597 5.72556 23.2223 3.48209C21.1149 1.62165 18.6557 0.496007 15.9111 0.140335C11.97 -0.371676 8.41608 0.601534 5.33911 3.03261C2.40289 5.35425 0.651329 8.40678 0.139152 12.1042C-0.306559 15.3326 0.319 18.3929 2.00801 21.1953C2.12139 21.3829 2.12921 21.5041 2.04711 21.7073C1.57794 22.8564 1.11659 24.0133 0.655238 25.1664L0.16652 26.3897C-0.14626 27.1714 0.00622046 27.6013 0.733433 27.9883L1.23388 28.0039L5.38603 26.3389C5.71836 26.206 6.05069 26.077 6.37911 25.9363C6.51986 25.8738 6.60978 25.8816 6.7388 25.9637C8.06421 26.7884 9.51081 27.3707 11.0395 27.6873C11.4227 27.7655 11.8137 27.8202 12.1929 27.871C12.3806 27.8945 12.5643 27.9218 12.7481 27.9492C12.8028 27.957 12.8576 27.9687 12.9084 27.9844L13.0257 28.0078H14.9297L15.309 27.957C15.5787 27.9218 15.8446 27.8867 16.1105 27.8437C19.4416 27.3199 22.2683 25.7683 24.5125 23.2356C26.3305 21.1797 27.4605 18.7252 27.8671 15.9384C27.8983 15.7156 27.9257 15.4889 27.9531 15.2623L27.9922 14.93V13.0696L28 13.0618ZM2.85643 25.1312L3.20048 24.2713C3.51717 23.474 3.83777 22.6727 4.16619 21.8793C4.35386 21.422 4.31867 21.0234 4.04499 20.6208C3.04409 19.1395 2.41462 17.5135 2.17613 15.7938C1.67959 12.2215 2.58665 9.02431 4.87385 6.28838C6.66452 4.14653 8.94781 2.7942 11.6494 2.27828C15.438 1.55521 18.8473 2.45025 21.7913 4.93605C23.9104 6.72613 25.2319 8.98132 25.7245 11.6352C26.5417 16.0635 25.2671 19.8664 21.9399 22.9385C20.2079 24.5371 18.1005 25.5181 15.6765 25.8464C12.8028 26.2373 10.1559 25.6862 7.80225 24.201C7.35654 23.9195 6.96166 23.7827 6.57068 23.7827C6.27745 23.7827 5.98422 23.8609 5.66753 24.0133C5.03024 24.3221 4.35386 24.5801 3.69702 24.8302C3.41552 24.9397 3.13402 25.0452 2.85252 25.1585C2.85252 25.1585 2.86033 25.139 2.86424 25.1312H2.85643Z" fill="#642B13"/>
</svg>
