<svg width="31" height="28" viewBox="0 0 31 28" fill="none" xmlns="http://www.w3.org/2000/svg">
<path d="M5.72141 17.1789C5.72141 16.3761 5.90441 15.6269 6.26079 14.9526C6.62681 14.2783 7.1084 13.7324 7.72484 13.3257C8.33165 12.919 9.00588 12.7263 9.72828 12.7263C10.4507 12.7263 11.1249 12.9297 11.7317 13.3257C12.0592 13.5398 12.3385 13.7966 12.589 14.0856C12.8394 13.7966 13.1283 13.5398 13.4462 13.3257C14.053 12.919 14.7272 12.7263 15.4496 12.7263C16.172 12.7263 16.8463 12.9297 17.4531 13.3257C17.7805 13.5398 18.0599 13.7966 18.3103 14.0856C18.3392 14.0535 18.3681 14.0214 18.397 13.9893C18.1369 13.711 17.9058 13.3899 17.7131 13.0367C17.3471 12.3624 17.1737 11.6132 17.1737 10.8104C17.1737 10.0076 17.3567 9.25841 17.7131 8.5841C17.9058 8.23089 18.1369 7.90979 18.397 7.6315C18.1369 7.35321 17.9058 7.03211 17.7131 6.6789C17.3471 6.00459 17.1737 5.25535 17.1737 4.4526C17.1737 3.64985 17.3567 2.90061 17.7131 2.2263C18.0791 1.55199 18.5607 1.00612 19.1772 0.599388C19.784 0.192661 20.4582 0 21.1806 0C21.903 0 22.5772 0.203364 23.184 0.599388C23.7909 1.00612 24.2821 1.54128 24.6481 2.2263C25.0141 2.90061 25.1875 3.64985 25.1875 4.4526C25.1875 5.25535 25.0045 6.00459 24.6481 6.6789C24.4555 7.04281 24.2243 7.35321 23.9642 7.6315C23.9931 7.66361 24.022 7.69572 24.0509 7.72783C24.3013 7.43884 24.5903 7.18196 24.9082 6.96789C25.515 6.56116 26.1892 6.3685 26.9116 6.3685C27.634 6.3685 28.3082 6.57187 28.915 6.96789C29.5218 7.37462 30.0131 7.90979 30.3791 8.5948C30.7451 9.26911 30.9185 10.0183 30.9185 10.8211C30.9185 11.6239 30.7355 12.3731 30.3791 13.0474C30.0131 13.7217 29.5315 14.2676 28.915 14.6743C28.3082 15.081 27.634 15.2737 26.9116 15.2737C26.1892 15.2737 25.515 15.0703 24.9082 14.6743C24.5903 14.4602 24.3013 14.2034 24.0509 13.9144C24.022 13.9465 23.9931 13.9786 23.9642 14.0107C24.2243 14.289 24.4555 14.6101 24.6481 14.9633C25.0141 15.6376 25.1875 16.3869 25.1875 17.1896C25.1875 17.9924 25.0045 18.7416 24.6481 19.4159C24.4555 19.7798 24.2243 20.0902 23.9642 20.3685C24.2243 20.6468 24.4555 20.9679 24.6481 21.3211C25.0141 21.9954 25.1875 22.7446 25.1875 23.5474C25.1875 24.3502 25.0045 25.0994 24.6481 25.7737C24.2821 26.448 23.8005 26.9939 23.184 27.4006C22.5772 27.8073 21.903 28 21.1806 28C20.4582 28 19.784 27.7966 19.1772 27.4006C18.5704 26.9939 18.0791 26.4587 17.7131 25.7737C17.3471 25.0994 17.1737 24.3502 17.1737 23.5474C17.1737 22.7446 17.3567 21.9954 17.7131 21.3211C17.9058 20.9679 18.1369 20.6468 18.397 20.3685C18.3681 20.3364 18.3392 20.3043 18.3103 20.2722C18.0599 20.5612 17.7709 20.818 17.4531 21.0321C16.8463 21.4388 16.172 21.6315 15.4496 21.6315C14.7272 21.6315 14.053 21.4281 13.4462 21.0321C13.1283 20.818 12.8394 20.5612 12.589 20.2722C12.5601 20.3043 12.5312 20.3364 12.5023 20.3685C12.7623 20.6468 12.9935 20.9679 13.1861 21.3211C13.5521 21.9954 13.7255 22.7446 13.7255 23.5474C13.7255 24.3502 13.5425 25.0994 13.1861 25.7737C12.8201 26.448 12.3385 26.9939 11.7221 27.4006C11.1153 27.8073 10.441 28 9.71865 28C8.99625 28 8.32202 27.7966 7.71521 27.4006C7.1084 26.9939 6.61717 26.4587 6.25116 25.7737C5.88515 25.0994 5.71177 24.3502 5.71177 23.5474C5.71177 22.7446 5.89478 21.9954 6.25116 21.3211C6.4438 20.9679 6.67496 20.6468 6.93503 20.3685C6.67496 20.0902 6.4438 19.7691 6.25116 19.4159C5.88515 18.7416 5.71177 17.9924 5.71177 17.1896L5.72141 17.1789Z" fill="#EDF6F6"/>
<path d="M0.539317 8.59495C0.905329 7.92064 1.38692 7.37477 2.00337 6.96804C2.61018 6.56131 3.28441 6.36865 4.0068 6.36865C4.72919 6.36865 5.40343 6.57202 6.01024 6.96804C6.61705 7.37477 7.10827 7.90994 7.47429 8.59495C7.8403 9.26926 8.01367 10.0185 8.01367 10.8213C8.01367 11.624 7.83067 12.3732 7.47429 13.0476C7.10827 13.7219 6.62668 14.2677 6.01024 14.6745C5.40343 15.0812 4.72919 15.2739 4.0068 15.2739C3.28441 15.2739 2.61018 15.0705 2.00337 14.6745C1.39656 14.2677 0.905329 13.7326 0.539317 13.0476C0.173305 12.3732 -6.67572e-05 11.624 -6.67572e-05 10.8213C-6.67572e-05 10.0185 0.182937 9.26926 0.539317 8.59495Z" fill="#EDF6F6"/>
</svg>
