<svg width="33" height="28" viewBox="0 0 33 28" fill="none" xmlns="http://www.w3.org/2000/svg">
<path d="M0.461426 9.90824C0.461426 9.35251 0.461426 8.79255 0.461426 8.23682C0.546269 7.7617 0.614137 7.28234 0.720191 6.81146C1.47105 3.39652 4.04182 0.626385 7.62644 0.0961147C9.38694 -0.162657 11.0541 0.0961147 12.611 0.978484C14.0448 1.79298 15.1181 2.9723 15.9877 4.35525C16.0938 4.52493 16.1998 4.69462 16.3059 4.86855C16.6495 4.36373 16.9465 3.88012 17.2901 3.43045C18.7112 1.57239 20.5056 0.312465 22.894 0.053693C24.7181 -0.145689 26.4319 0.206411 27.9888 1.17362C30.4959 2.7305 31.7601 5.07217 32.1037 7.9526C32.4176 10.5912 31.6922 12.9668 30.2287 15.1473C28.8839 17.1496 27.1998 18.8507 25.4053 20.4373C22.6861 22.8426 19.9245 25.2012 17.1798 27.5768C16.5265 28.1411 16.132 28.1411 15.4744 27.5768C13.0776 25.5109 10.6723 23.445 8.28397 21.3663C6.49378 19.8094 4.75874 18.1847 3.27823 16.3181C2.22617 14.9946 1.34804 13.565 0.885642 11.9233C0.698987 11.2615 0.609901 10.5785 0.474152 9.90399L0.461426 9.90824Z" fill="#EDF6F6"/>
</svg>
