<svg width="29" height="28" viewBox="0 0 29 28" fill="none" xmlns="http://www.w3.org/2000/svg">
<path d="M22.9416 0.104473C22.8175 0.0851263 22.6933 0.0580403 22.5692 0.0309551L22.4179 0H6.78493C6.65691 0.0270851 6.52891 0.0541691 6.40089 0.0773849C6.10608 0.135424 5.83066 0.189598 5.563 0.274723C2.89414 1.13371 1.24938 2.95615 0.675266 5.68787L0.56665 6.20249V21.7958C0.593804 21.9235 0.620961 22.0512 0.648115 22.1788C0.706302 22.4574 0.76449 22.7476 0.842073 23.0262C1.58687 25.6651 3.92599 27.6423 6.66855 27.948C6.96724 27.9828 7.26594 27.9983 7.56076 27.9983C12.2584 27.9983 16.9522 28.0021 21.6498 27.9983C25.0441 27.9983 27.7983 25.7773 28.5004 22.4729C28.5857 22.0705 28.6284 21.6681 28.6284 21.2773C28.6362 16.6148 28.6439 11.6505 28.6284 6.72485C28.6207 3.53268 26.1225 0.626827 22.9416 0.10834V0.104473ZM26.6384 21.0993C26.6345 23.8388 24.47 25.994 21.7158 26.0056C20.7887 26.0095 19.8654 26.0095 18.9383 26.0095C18.209 26.0095 17.4836 26.0095 16.7543 26.0095H12.4252C10.796 26.0095 9.1706 26.0095 7.54136 26.0095C5.12853 26.0056 3.16568 24.423 2.65751 22.0782C2.59545 21.7881 2.56441 21.4592 2.56053 21.1032C2.55665 16.371 2.55277 11.6427 2.56053 6.91058C2.56441 4.15563 4.73285 1.99656 7.49869 1.99269C12.2312 1.98496 16.9677 1.98496 21.7003 1.99269C24.4661 1.99656 26.6345 4.1595 26.6384 6.91058C26.6462 11.7936 26.6462 16.5684 26.6384 21.1032V21.0993Z" fill="#EDF6F6"/>
<path d="M20.3037 14.9896C20.4317 14.9896 20.5791 14.9896 20.7188 14.9664C21.1377 14.9044 21.4946 14.5059 21.5179 14.0764C21.5334 13.7746 21.4442 13.5154 21.2657 13.3219C21.0679 13.1168 20.7808 13.0046 20.4317 13.0046C19.4852 13.0046 18.5426 13.0046 17.5961 13.0046H16.1259C16.0522 13.0046 15.9746 13.0007 15.897 12.9969L15.5983 12.9814V10.6676C15.5983 9.83953 15.5983 9.01536 15.5983 8.18733C15.5983 7.74623 15.4509 7.44442 15.1289 7.24322C14.8031 7.04202 14.4695 7.02654 14.1359 7.2084C13.779 7.39799 13.6083 7.6998 13.6083 8.12929V13.0046H8.91065C8.7904 13.0046 8.66626 13.0046 8.54601 13.0201C8.25895 13.051 8.00293 13.2097 7.84388 13.4535C7.68096 13.6972 7.63828 13.9952 7.72363 14.2737C7.86715 14.7458 8.22404 14.9896 8.78651 14.9896C9.80673 14.9896 10.8231 14.9896 11.8433 14.9896H13.6122V19.6792C13.6122 19.7991 13.6122 19.9229 13.6277 20.0429C13.6587 20.3215 13.8178 20.5768 14.0583 20.7355C14.2988 20.8941 14.5936 20.9444 14.8651 20.8632C15.35 20.7239 15.5983 20.364 15.6022 19.7914C15.6022 18.7699 15.6022 17.7484 15.6022 16.7308V14.9896H17.0918C18.1663 14.9896 19.2369 14.9896 20.3115 14.9896H20.3037Z" fill="#EDF6F6"/>
</svg>
