<svg width="29" height="28" viewBox="0 0 29 28" fill="none" xmlns="http://www.w3.org/2000/svg">
<path d="M28.6932 27.2136C28.8256 26.7758 28.6888 26.3124 28.3092 25.9383C26.6759 24.3358 25.0382 22.6907 23.458 21.1009C22.8179 20.4548 22.1779 19.8129 21.5334 19.171C21.4849 19.12 21.4363 19.069 21.3877 19.018L21.1097 18.7162L21.3259 18.4611C25.7489 13.2496 24.2525 6.7543 20.602 3.29412C16.2982 -0.786686 9.77407 -1.114 5.08623 2.52472C0.698548 5.92964 -0.533002 11.8553 2.16405 16.6078C3.57217 19.0945 5.66007 20.8331 8.37037 21.7725C12.0606 23.052 15.6714 22.6057 19.1012 20.4463L19.3881 20.2635L19.6927 20.595C19.7368 20.646 19.781 20.6928 19.8251 20.7396L22.1249 23.0435C23.4801 24.3995 24.8352 25.7556 26.1859 27.1116L26.3139 27.2391C26.6229 27.5537 26.9143 27.8512 27.2939 28H27.775C27.8059 27.9872 27.8368 27.9745 27.8721 27.9702C28.2694 27.8852 28.574 27.6047 28.6932 27.2178V27.2136ZM12.3961 20.1912H12.3828C9.91091 20.1912 7.58464 19.2645 5.8278 17.5769C4.06655 15.8851 3.09544 13.6449 3.09544 11.2602C3.09544 8.87122 4.06656 6.61827 5.83664 4.91369C7.59348 3.22185 9.91533 2.29518 12.374 2.29518H12.4005C17.5165 2.30793 21.6791 6.32922 21.6791 11.2517C21.6791 16.1742 17.5121 20.187 12.3917 20.1912H12.3961Z" fill="#EDF6F6"/>
</svg>
