<svg width="29" height="27" viewBox="0 0 29 27" fill="none" xmlns="http://www.w3.org/2000/svg">
<path d="M10.1077 0C10.7105 0.0332795 11.1793 0.276537 11.5537 0.722641C12.1807 1.46905 12.9755 1.93497 13.9576 2.0665C15.3196 2.25033 16.4526 1.80977 17.3644 0.815349C18.1156 -0.00158478 18.7418 -0.156097 19.7811 0.244842C21.1771 0.782861 22.4545 1.51897 23.6164 2.45001C24.379 3.06172 24.5702 3.71621 24.2491 4.63299C23.4728 6.85162 24.8639 9.15346 27.2153 9.54251C28.0755 9.68434 28.6016 10.1938 28.771 11.0512C29.0946 12.6914 29.0672 14.3316 28.7428 15.9678C28.5984 16.6944 27.9867 17.2491 27.2371 17.3608C25.1811 17.6667 23.8488 19.2173 23.9311 21.2545C23.9465 21.6404 24.0594 22.0342 24.1885 22.4027C24.4911 23.2632 24.3104 23.97 23.5954 24.5476C22.469 25.458 21.2271 26.1775 19.8804 26.7235C19.0767 27.0491 18.2633 26.8336 17.7186 26.1609C16.0854 24.1403 13.212 24.1689 11.6344 26.2211C11.0696 26.9564 10.2893 27.1799 9.41781 26.8542C7.93953 26.3019 6.58874 25.5333 5.36545 24.5484C4.66988 23.9882 4.49558 23.2355 4.86112 22.3662C5.74551 20.2641 4.6255 17.9559 2.42018 17.341C2.27574 17.3006 2.12807 17.2649 1.9796 17.2467C0.832154 17.1041 0.28264 16.5661 0.130938 15.4496C-0.076441 13.9283 -0.0369018 12.4156 0.251977 10.9078C0.407713 10.0948 1.03227 9.51953 1.8747 9.42286C4.35357 9.13919 5.85848 6.75891 5.01605 4.4547C4.67391 3.51891 4.88452 2.81767 5.6866 2.20992C6.82436 1.34624 8.06864 0.66876 9.41378 0.173529C9.63649 0.0919149 9.87695 0.0570506 10.1085 0L10.1077 0ZM19.3333 13.5139C19.351 10.9426 17.1748 8.78025 14.5506 8.76282C11.8838 8.74539 9.67926 10.8721 9.66715 13.4742C9.65505 16.0819 11.8063 18.2308 14.4498 18.2538C17.1247 18.2768 19.3147 16.1509 19.3325 13.5139H19.3333Z" fill="#642B13"/>
</svg>
