<?xml version="1.0" encoding="utf-8"?>
<!-- Generator: Adobe Illustrator 26.3.1, SVG Export Plug-In . SVG Version: 6.00 Build 0)  -->
<svg version="1.1" id="Calque_1" xmlns="http://www.w3.org/2000/svg" xmlns:xlink="http://www.w3.org/1999/xlink" x="0px" y="0px"
	 viewBox="0 0 38 34" style="enable-background:new 0 0 38 34;" xml:space="preserve">
<style type="text/css">
	.st0{fill:#FFFFFF;stroke:#642B13;stroke-width:0.5;stroke-miterlimit:10;}
</style>
<path class="st0" d="M34.7,10.7c-0.4-0.8-1-1.4-1.7-1.9s-1.5-0.7-2.3-0.7s-1.6,0.2-2.3,0.7c-0.4,0.2-0.7,0.5-1,0.9l-0.1-0.1
	c0.3-0.3,0.6-0.7,0.8-1.1c0.4-0.8,0.6-1.6,0.6-2.6c0-0.9-0.2-1.8-0.6-2.6s-1-1.4-1.7-1.9s-1.5-0.7-2.3-0.7s-1.6,0.2-2.3,0.7
	c-0.7,0.5-1.3,1.1-1.7,1.9C19.7,4.2,19.5,5,19.5,6c0,0.9,0.2,1.8,0.6,2.6c0.2,0.4,0.5,0.8,0.8,1.1c-0.3,0.3-0.6,0.7-0.8,1.1
	c-0.4,0.8-0.6,1.6-0.6,2.6c0,0.9,0.2,1.8,0.6,2.6c0.2,0.4,0.5,0.8,0.8,1.1l-0.1,0.1c-0.3-0.3-0.6-0.6-1-0.9
	c-0.7-0.5-1.5-0.7-2.3-0.7s-1.6,0.2-2.3,0.7c-0.4,0.2-0.7,0.5-1,0.9c-0.3-0.3-0.6-0.6-1-0.9c0,0,0,0-0.1,0c0.1-0.1,0.1-0.2,0.2-0.3
	c0.4-0.8,0.6-1.6,0.6-2.6c0-0.9-0.2-1.8-0.6-2.6c-0.4-0.8-1-1.4-1.7-1.9s-1.5-0.7-2.3-0.7C8.5,8.2,7.7,8.4,7,8.9
	C6.3,9.3,5.7,10,5.3,10.7c-0.4,0.8-0.6,1.6-0.6,2.6c0,0.9,0.2,1.8,0.6,2.6c0.4,0.8,1,1.4,1.7,1.9c0,0,0,0,0.1,0
	C7,17.9,6.9,18,6.9,18.1c-0.4,0.8-0.6,1.6-0.6,2.6l0,0c0,0.9,0.2,1.8,0.6,2.6c0.2,0.4,0.5,0.8,0.8,1.1c-0.3,0.3-0.6,0.7-0.8,1.1
	c-0.4,0.8-0.6,1.6-0.6,2.6c0,0.9,0.2,1.8,0.6,2.6c0.4,0.8,1,1.4,1.7,1.9s1.5,0.7,2.3,0.7s1.6-0.2,2.3-0.7s1.3-1.1,1.7-1.9
	s0.6-1.6,0.6-2.6c0-0.9-0.2-1.8-0.6-2.6c-0.2-0.4-0.5-0.8-0.8-1.1l0.1-0.1c0.3,0.3,0.6,0.6,1,0.9c0.7,0.5,1.5,0.7,2.3,0.7
	s1.6-0.2,2.3-0.7c0.4-0.2,0.7-0.5,1-0.9l0.1,0.1c-0.3,0.3-0.6,0.7-0.8,1.1c-0.4,0.8-0.6,1.6-0.6,2.6c0,0.9,0.2,1.8,0.6,2.6
	c0.4,0.8,1,1.4,1.7,1.9s1.5,0.7,2.3,0.7s1.6-0.2,2.3-0.7c0.7-0.5,1.3-1.1,1.7-1.9c0.4-0.8,0.6-1.6,0.6-2.6c0-0.9-0.2-1.8-0.6-2.6
	c-0.2-0.4-0.5-0.8-0.8-1.1c0.3-0.3,0.6-0.7,0.8-1.1c0.4-0.8,0.6-1.6,0.6-2.6c0-0.9-0.2-1.8-0.6-2.6c-0.2-0.4-0.5-0.8-0.8-1.1
	l0.1-0.1c0.3,0.3,0.6,0.6,1,0.9c0.7,0.5,1.5,0.7,2.3,0.7s1.6-0.2,2.3-0.7s1.3-1.1,1.7-1.9c0.4-0.8,0.6-1.6,0.6-2.6
	C35.3,12.4,35.1,11.5,34.7,10.7z"/>
</svg>
