<svg width="24" height="24" viewBox="0 0 24 24" fill="none" xmlns="http://www.w3.org/2000/svg">
<g clip-path="url(#clip0_116_259)">
<path d="M0 22.5602C0.140486 21.9757 0.285747 21.3544 0.439191 20.7358C0.979313 18.563 1.52285 16.3915 2.06433 14.2194C2.18777 13.7236 2.28461 13.637 2.78177 13.5817C5.65492 13.2605 8.52807 12.94 11.4012 12.6181C11.7763 12.5758 12.0191 12.3248 12.0116 11.99C12.0041 11.6646 11.7668 11.4307 11.3992 11.3898C8.48375 11.0652 5.56831 10.7412 2.65219 10.4166C2.35076 10.3832 2.183 10.2502 2.11002 9.95898C1.43283 7.25011 0.75358 4.54192 0.0852466 1.83099C-0.0456922 1.30109 0.0170493 0.793684 0.426915 0.383125C0.842237 -0.0328907 1.42737 -0.116776 2.005 0.164205C3.55649 0.918489 5.10662 1.67686 6.65674 2.43456C12.0784 5.08478 17.5001 7.735 22.9204 10.3873C23.8922 10.8626 24.266 11.8979 23.8002 12.8043C23.597 13.2005 23.2689 13.4535 22.8741 13.6458C18.9704 15.5506 15.0702 17.4609 11.168 19.3684C8.12162 20.8579 5.07456 22.3474 2.02614 23.8328C1.21937 24.2263 0.371675 23.903 0.108434 23.1064C0.0559218 22.9468 0.0409184 22.775 0 22.5602Z" fill="#642B13"/>
</g>
<defs>
<clipPath id="clip0_116_259">
<rect width="24" height="24" fill="white"/>
</clipPath>
</defs>
</svg>
